<?xml version="1.0" standalone="no"?>
<!DOCTYPE svg PUBLIC "-//W3C//DTD SVG 20010904//EN"
 "http://www.w3.org/TR/2001/REC-SVG-20010904/DTD/svg10.dtd">
<svg version="1.0" xmlns="http://www.w3.org/2000/svg"
 width="72.000000pt" height="72.000000pt" viewBox="0 0 72.000000 72.000000"
 preserveAspectRatio="xMidYMid meet">

<g transform="translate(0.000000,72.000000) scale(0.100000,-0.100000)"
fill="currentColor" stroke="none">
<path d="M299 710 c-63 -11 -143 -53 -193 -103 -102 -103 -130 -272 -64 -401
31 -60 105 -133 167 -163 49 -25 68 -28 151 -28 89 0 99 2 158 34 71 39 128
98 163 169 33 66 34 215 2 284 -28 62 -106 144 -163 173 -38 19 -149 48 -169
44 -3 -1 -27 -5 -52 -9z m288 -172 c13 -12 23 -26 23 -32 0 -6 -72 -83 -160
-171 l-160 -160 -95 95 -95 94 27 28 27 28 66 -65 65 -65 135 135 c74 74 137
135 139 135 3 0 15 -10 28 -22z"/>
</g>
</svg>
